
<svg xmlns="http://www.w3.org/2000/svg" viewBox="0 0 24 24" fill="none" stroke="currentColor" stroke-width="2" stroke-linecap="round" stroke-linejoin="round" class="lucide lucide-wrench">
  <path d="M14.7 6.3a1 1 0 0 0 0 1.4l1.4 1.4a1 1 0 0 0 1.4 0l3.5-3.5a1 1 0 0 0 0-1.4l-1.4-1.4a1 1 0 0 0-1.4 0L14.7 6.3z"/>
  <path d="m18 9 1.4-1.4"/>
  <path d="M16 11s-2-2-4-2-4 2-4 2"/>
  <path d="M12 13s-2 2-4 2-4-2-4-2"/>
  <path d="m2 22 5.5-5.5"/>
  <path d="m14 10-5.5 5.5"/>
  <path d="M12 8V2"/>
  <path d="M7 13H2"/>
  <path d="M22 13h-5"/>
</svg>
